# File created by Blade
# Date/Time:  Wed Jan 21 14:58:10 2015
# Frame Rate: 120.000 fps
#------------------------------------------------------
:FULLY-SPECIFIED
:DEGREES
260
root 16.812421 35.000593 -23.131518 -148.226181 -70.011327 -205.532576
Spine -29.189088 49.072884 -24.894822
Head 14.116033 23.470067 1.388670
LeftShoulder -15.224862 -27.473702 23.523521
LeftArm -17.848577 -0.520623 -9.964321
LeftForeArm 13.251068 -0.000000 -5.642855
LeftHand -9.729568 -0.000000 -5.923496
LeftHandThumb1 -26.253704 0.000000 33.147579
RightShoulder 5.893841 4.013068 -14.586797
RightArm 41.269463 16.064658 26.674785
RightForeArm -36.411552 -0.000000 7.946765
RightHand -6.323791 -0.000000 9.613241
RightHandThumb1 -24.326973 -0.000000 -32.862282
LeftUpLeg -17.637617 -35.297250 3.258180
LeftLeg -1.176129 -0.000000 0.000000
LeftFoot -8.325543 4.774984 -13.206721
LeftToeBase 31.543838 -0.000000 -0.000000
RightUpLeg 9.293417 -38.159205 -3.789474
RightLeg -2.426282 -0.000000 0.000000
RightFoot -40.828332 -46.274097 33.665976
RightToeBase 20.804138 -0.000000 -0.000000
261
root 16.803195 34.995762 -23.125236 -147.986036 -70.168365 -205.754840
Spine -29.260552 49.261967 -24.964655
Head 14.090724 23.395143 1.313579
LeftShoulder -15.151072 -27.379502 23.494682
LeftArm -17.958956 -0.347407 -10.071538
LeftForeArm 13.232898 -0.000000 -5.590375
LeftHand -9.696676 -0.000000 -5.777116
LeftHandThumb1 -26.253704 0.000000 33.147579
RightShoulder 5.911205 4.007892 -14.565681
RightArm 41.675631 16.228163 27.001829
RightForeArm -36.590566 0.000000 7.955254
RightHand -6.215630 -0.000000 9.550861
RightHandThumb1 -24.326973 -0.000000 -32.862282
LeftUpLeg -17.657593 -35.374210 3.248838
LeftLeg -1.197870 -0.000000 0.000000
LeftFoot -8.340715 4.727004 -13.232168
LeftToeBase 31.491400 -0.000000 -0.000000
RightUpLeg 9.262344 -38.230351 -3.784127
RightLeg -2.331980 -0.000000 0.000000
RightFoot -40.893279 -46.309578 33.692136
RightToeBase 20.836140 -0.000000 -0.000000
262
root 16.793427 34.991831 -23.119836 -147.812470 -70.293732 -205.896508
Spine -29.369254 49.468982 -25.058070
Head 14.053244 23.391705 1.285628
LeftShoulder -15.124284 -27.364137 23.524266
LeftArm -18.055133 -0.193154 -10.149788
LeftForeArm 13.197366 0.000000 -5.569894
LeftHand -9.609966 -0.000000 -5.717877
LeftHandThumb1 -26.253704 0.000000 33.147579
RightShoulder 5.912214 3.978815 -14.477722
RightArm 42.035162 16.031366 26.902461
RightForeArm -36.421011 0.000000 7.970783
RightHand -6.221840 -0.000000 9.570047
RightHandThumb1 -24.326973 -0.000000 -32.862282
LeftUpLeg -17.677936 -35.443437 3.259756
LeftLeg -1.242063 -0.000000 0.000000
LeftFoot -8.370453 4.731256 -13.185327
LeftToeBase 31.626249 -0.000000 -0.000000
RightUpLeg 9.211842 -38.264889 -3.758985
RightLeg -2.241642 -0.000000 0.000000
RightFoot -40.995403 -46.300478 33.800362
RightToeBase 20.774012 -0.000000 -0.000000
263
root 16.783354 34.988925 -23.115082 -147.656236 -70.373261 -206.019127
Spine -29.473197 49.665106 -25.159804
Head 14.034977 23.475447 1.258103
LeftShoulder -15.114617 -27.364037 23.544605
LeftArm -18.216254 0.033001 -10.180614
LeftForeArm 13.135956 0.000000 -5.467987
LeftHand -9.701075 -0.000000 -5.618552
LeftHandThumb1 -26.253704 0.000000 33.147579
RightShoulder 5.974447 4.086176 -14.431919
RightArm 42.327348 15.927010 27.078487
RightForeArm -36.521917 -0.000000 8.122119
RightHand -6.407272 -0.000000 9.413041
RightHandThumb1 -24.326973 -0.000000 -32.862282
LeftUpLeg -17.699740 -35.531581 3.268543
LeftLeg -1.276874 -0.000000 0.000000
LeftFoot -8.390276 4.779973 -13.199462
LeftToeBase 31.538769 -0.000000 -0.000000
RightUpLeg 9.161306 -38.287051 -3.753248
RightLeg -2.161637 -0.000000 0.000000
RightFoot -41.078261 -46.270395 33.889339
RightToeBase 20.782623 -0.000000 -0.000000
264
root 16.772315 34.986465 -23.108432 -147.538583 -70.420086 -206.111403
Spine -29.578832 49.889037 -25.264363
Head 14.027260 23.508958 1.199072
LeftShoulder -15.055779 -27.387651 23.508094
LeftArm -18.396296 0.134947 -10.088359
LeftForeArm 13.139397 -0.000000 -5.445038
LeftHand -9.749446 0.000000 -5.438185
LeftHandThumb1 -26.253704 0.000000 33.147579
RightShoulder 5.985351 4.038323 -14.355189
RightArm 42.774846 15.896713 27.169162
RightForeArm -36.639550 -0.000000 8.215712
RightHand -6.371521 -0.000000 9.469220
RightHandThumb1 -24.326973 -0.000000 -32.862282
LeftUpLeg -17.716147 -35.612217 3.263514
LeftLeg -1.300424 -0.000000 0.000000
LeftFoot -8.431206 4.862912 -13.160361
LeftToeBase 31.590085 -0.000000 -0.000000
RightUpLeg 9.119974 -38.272057 -3.762490
RightLeg -2.089413 -0.000000 0.000000
RightFoot -41.113434 -46.294655 33.899138
RightToeBase 20.808215 -0.000000 -0.000000
265
root 16.758555 34.985708 -23.101062 -147.405446 -70.436190 -206.214058
Spine -29.719719 50.122328 -25.417964
Head 14.017371 23.525111 1.120460
LeftShoulder -15.063524 -27.305494 23.547231
LeftArm -18.566239 0.257520 -10.137159
LeftForeArm 13.035076 -0.000000 -5.339470
LeftHand -9.766029 -0.000000 -5.180578
LeftHandThumb1 -26.253704 0.000000 33.147579
RightShoulder 6.019046 4.021882 -14.284027
RightArm 43.136947 15.725519 27.133555
RightForeArm -36.602993 -0.000000 8.269220
RightHand -6.308874 -0.000000 9.478514
RightHandThumb1 -24.326973 -0.000000 -32.862282
LeftUpLeg -17.739591 -35.724953 3.259090
LeftLeg -1.330585 -0.000000 0.000000
LeftFoot -8.460036 4.992635 -13.203891
LeftToeBase 31.594280 -0.000000 -0.000000
RightUpLeg 9.072404 -38.252493 -3.795111
RightLeg -2.010788 -0.000000 0.000000
RightFoot -41.175714 -46.217344 33.983047
RightToeBase 20.735363 -0.000000 -0.000000
266
root 16.745595 34.984233 -23.094440 -147.307867 -70.442662 -206.281606
Spine -29.848054 50.345489 -25.558961
Head 14.034526 23.624726 1.120792
LeftShoulder -15.080119 -27.204676 23.560990
LeftArm -18.693408 0.225598 -10.095475
LeftForeArm 12.967289 -0.000000 -5.325549
LeftHand -9.833089 -0.000000 -4.902228
LeftHandThumb1 -26.253704 0.000000 33.147579
RightShoulder 5.995975 3.941116 -14.269637
RightArm 43.750371 15.728063 27.373109
RightForeArm -36.873413 -0.000000 8.187988
RightHand -6.197556 -0.000000 9.448536
RightHandThumb1 -24.326973 -0.000000 -32.862282
LeftUpLeg -17.769543 -35.813365 3.260743
LeftLeg -1.335162 -0.000000 0.000000
LeftFoot -8.473413 5.078494 -13.159095
LeftToeBase 31.408119 -0.000000 -0.000000
RightUpLeg 9.034055 -38.225185 -3.819240
RightLeg -1.955116 -0.000000 0.000000
RightFoot -41.200739 -46.207097 33.997987
RightToeBase 20.778478 -0.000000 -0.000000
267
root 16.732770 34.984338 -23.088310 -147.233230 -70.412200 -206.335854
Spine -29.972275 50.591161 -25.712474
Head 14.049629 23.717452 1.085386
LeftShoulder -15.035030 -27.232434 23.535112
LeftArm -18.928946 0.276718 -9.953064
LeftForeArm 12.918138 0.000000 -5.276498
LeftHand -9.971937 -0.000000 -4.746549
LeftHandThumb1 -26.253704 0.000000 33.147579
RightShoulder 6.028899 3.842630 -14.206928
RightArm 44.237184 15.644160 27.382452
RightForeArm -36.988300 -0.000000 8.179619
RightHand -6.210349 -0.000000 9.481423
RightHandThumb1 -24.326973 -0.000000 -32.862282
LeftUpLeg -17.785500 -35.851683 3.237983
LeftLeg -1.342887 -0.000000 0.000000
LeftFoot -8.489132 5.134016 -13.128002
LeftToeBase 31.475654 -0.000000 -0.000000
RightUpLeg 9.001706 -38.190898 -3.861081
RightLeg -1.907626 -0.000000 0.000000
RightFoot -41.236402 -46.166680 34.034928
RightToeBase 20.789283 -0.000000 -0.000000
268
root 16.718790 34.985634 -23.082180 -147.133901 -70.352101 -206.408636
Spine -30.139207 50.821785 -25.915479
Head 14.065186 23.760848 1.008240
LeftShoulder -15.022293 -27.197908 23.561783
LeftArm -19.151416 0.345509 -9.889906
LeftForeArm 12.808918 0.000000 -5.246123
LeftHand -9.959423 0.000000 -4.447837
LeftHandThumb1 -26.253704 0.000000 33.147579
RightShoulder 6.098809 3.790631 -14.129182
RightArm 44.617828 15.439286 27.301150
RightForeArm -36.975748 -0.000000 8.265659
RightHand -6.249410 -0.000000 9.470684
RightHandThumb1 -24.326973 -0.000000 -32.862282
LeftUpLeg -17.803465 -35.839190 3.183982
LeftLeg -1.332176 -0.000000 0.000000
LeftFoot -8.489467 5.149541 -13.111368
LeftToeBase 31.481077 -0.000000 -0.000000
RightUpLeg 8.960419 -38.115009 -3.909832
RightLeg -1.878087 -0.000000 0.000000
RightFoot -41.234983 -46.207061 34.010242
RightToeBase 20.797083 -0.000000 -0.000000
269
root 16.703904 34.987280 -23.078289 -147.022214 -70.287057 -206.499836
Spine -30.301312 51.063457 -26.142294
Head 14.074796 23.763025 0.921685
LeftShoulder -15.194217 -26.786919 23.665056
LeftArm -19.081439 0.390950 -10.177950
LeftForeArm 12.348426 -0.000000 -5.254782
LeftHand -10.131852 0.000000 -4.261013
LeftHandThumb1 -26.253704 0.000000 33.147579
RightShoulder 6.176574 3.777349 -14.108423
RightArm 44.844535 15.060609 27.094870
RightForeArm -36.745669 -0.000000 8.458160
RightHand -6.288710 -0.000000 9.441240
RightHandThumb1 -24.326973 -0.000000 -32.862282
LeftUpLeg -17.807736 -35.813902 3.119947
LeftLeg -1.333902 -0.000000 0.000000
LeftFoot -8.487164 5.139054 -13.137518
LeftToeBase 31.699143 -0.000000 -0.000000
RightUpLeg 8.952112 -38.156458 -3.987673
RightLeg -1.884629 -0.000000 0.000000
RightFoot -41.196414 -46.174874 33.962636
RightToeBase 20.870693 -0.000000 -0.000000
